<svg width="22" height="21" viewBox="0 0 22 21"  xmlns="http://www.w3.org/2000/svg" id="comment">
<path fill-rule="evenodd" clip-rule="evenodd" d="M8.24742 1.6508C4.56716 1.6508 1.58369 4.76068 1.58369 8.59697C1.58369 12.4332 4.56716 15.5431 8.24742 15.5431H13.1324C13.2787 15.5431 13.4238 15.5382 13.5675 15.5285C13.8271 15.5111 14.0898 15.5957 14.2975 15.7769L16.6392 17.8197C16.7462 17.9132 16.9092 17.8338 16.9092 17.6883V14.8601C16.9092 14.5262 17.0576 14.2198 17.2971 14.0198C18.8219 12.7454 19.7961 10.7901 19.7961 8.59697C19.7961 4.76068 16.8127 1.6508 13.1324 1.6508H8.24742ZM0 8.59697C0 3.84897 3.69251 0 8.24742 0H13.1324C17.6873 0 21.3798 3.84897 21.3798 8.59697C21.3798 11.2121 20.2587 13.5549 18.4929 15.1305V19.2923C18.4929 20.2031 17.4729 20.6997 16.8028 20.1152L13.4471 17.1877C13.3426 17.1918 13.2377 17.1939 13.1324 17.1939H8.24742C3.69251 17.1939 0 13.3449 0 8.59697Z"  fill="currentcolor"/>
</svg>
