<svg width="16" height="16" viewBox="0 0 16 16" fill="none" xmlns="http://www.w3.org/2000/svg" id="search">
<path d="M14.3003 15.7145C14.6949 16.1009 15.328 16.0943 15.7145 15.6997C16.1009 15.3051 16.0943 14.672 15.6997 14.2855L14.3003 15.7145ZM13.1725 11.8107L12.458 11.111L11.0587 12.5399L11.7731 13.2396L13.1725 11.8107ZM13.5813 7.65C13.5813 10.7508 11.0085 13.3 7.79063 13.3V15.3C12.0734 15.3 15.5813 11.8946 15.5813 7.65H13.5813ZM7.79063 13.3C4.57272 13.3 2 10.7508 2 7.65H0C0 11.8946 3.50781 15.3 7.79063 15.3V13.3ZM2 7.65C2 4.54922 4.57272 2 7.79063 2V0C3.50781 0 0 3.4054 0 7.65H2ZM7.79063 2C11.0085 2 13.5813 4.54922 13.5813 7.65H15.5813C15.5813 3.4054 12.0734 0 7.79063 0V2ZM15.6997 14.2855L13.1725 11.8107L11.7731 13.2396L14.3003 15.7145L15.6997 14.2855Z" fill="currentcolor"/>
</svg>
